<svg width="90" height="92" viewBox="0 0 90 92" fill="none" xmlns="http://www.w3.org/2000/svg">
<path fill-rule="evenodd" clip-rule="evenodd" d="M45 83.5916C65.7113 83.5916 82.5 66.6569 82.5 45.7655C82.5 24.8742 65.7113 7.93945 45 7.93945C24.2888 7.93945 7.5 24.8742 7.5 45.7655C7.5 66.6569 24.2888 83.5916 45 83.5916ZM65.1413 33.7936C65.3167 33.6113 65.4539 33.3952 65.5447 33.1582C65.6355 32.9213 65.6781 32.6683 65.6699 32.4143C65.6616 32.1604 65.6027 31.9108 65.4967 31.6803C65.3908 31.4498 65.2398 31.2433 65.0529 31.0729C64.866 30.9026 64.6471 30.772 64.409 30.6889C64.171 30.6058 63.9188 30.572 63.6676 30.5894C63.4163 30.6068 63.171 30.675 62.9465 30.7901C62.722 30.9052 62.5227 31.0648 62.3606 31.2592L39.9 56.2944L27.5437 44.3962C27.1842 44.0496 26.7029 43.8613 26.2057 43.8726C25.7085 43.884 25.2361 44.0941 24.8925 44.4568C24.5489 44.8194 24.3622 45.3049 24.3734 45.8064C24.3847 46.308 24.593 46.7845 24.9525 47.1311L38.7038 60.3702L40.0969 61.713L41.3887 60.2718L65.1394 33.7936H65.1413Z" fill="#00FFF0"/>
</svg>
