<svg width="90" height="92" viewBox="0 0 90 92" fill="none" xmlns="http://www.w3.org/2000/svg">
<path fill-rule="evenodd" clip-rule="evenodd" d="M45 79.809C63.6394 79.809 78.75 64.567 78.75 45.7655C78.75 26.9641 63.6394 11.7221 45 11.7221C26.3606 11.7221 11.25 26.9641 11.25 45.7655C11.25 64.567 26.3606 79.809 45 79.809ZM45 83.5916C65.7113 83.5916 82.5 66.6569 82.5 45.7655C82.5 24.8742 65.7113 7.93945 45 7.93945C24.2888 7.93945 7.5 24.8742 7.5 45.7655C7.5 66.6569 24.2888 83.5916 45 83.5916Z" fill="#FFFFFF"/>
<path fill-rule="evenodd" clip-rule="evenodd" d="M65.0062 31.1247C65.3751 31.4609 65.5965 31.931 65.6218 32.4318C65.6471 32.9326 65.4743 33.423 65.1412 33.7952L40.0987 61.7128L24.9562 47.1327C24.6162 46.7822 24.4245 46.3122 24.4214 45.8218C24.4184 45.3314 24.6043 44.859 24.94 44.5042C25.2756 44.1494 25.7348 43.9401 26.2205 43.9202C26.7063 43.9004 27.1807 44.0716 27.5437 44.3979L39.9 56.2942L62.3606 31.259C62.5259 31.0747 62.7255 30.9252 62.9482 30.8188C63.1708 30.7124 63.412 30.6513 63.6581 30.639C63.9041 30.6267 64.1502 30.6635 64.3821 30.7471C64.6141 30.8308 64.8274 30.9597 65.01 31.1266L65.0062 31.1247Z" fill="#FFFFFF"/>
</svg>
